<svg id="mouse" xmlns="http://www.w3.org/2000/svg" width="37.062" height="63" viewBox="0 0 37.062 63">
  <path id="Caminho_1" data-name="Caminho 1" d="M18.531,0A18.552,18.552,0,0,0,0,18.531V44.469a18.531,18.531,0,0,0,37.062,0V18.531A18.552,18.552,0,0,0,18.531,0ZM33.282,44.469a14.751,14.751,0,1,1-29.5,0V18.531a14.751,14.751,0,1,1,29.5,0Zm0,0" fill="#fff"/>
  <path id="Caminho_2" data-name="Caminho 2" d="M137.136,101.852a1.89,1.89,0,0,0-1.89,1.89v8.7a1.89,1.89,0,1,0,3.78,0v-8.7A1.89,1.89,0,0,0,137.136,101.852Zm0,0" transform="translate(-118.604 -89.319)" fill="#fff"/>
</svg>
